<?xml version="1.0" encoding="UTF-8" ?>
<!DOCTYPE svg PUBLIC "-//W3C//DTD SVG 1.1//EN" "http://www.w3.org/Graphics/SVG/1.1/DTD/svg11.dtd">
<svg width="512pt" height="512pt" viewBox="0 0 512 512" version="1.1" xmlns="http://www.w3.org/2000/svg">
<g id="#000000ff">
<path fill="#000000" opacity="1.00" d=" M 100.40 0.00 L 411.56 0.00 C 424.34 0.59 436.84 5.96 445.84 15.09 C 453.34 22.64 458.46 32.54 460.10 43.07 C 460.98 48.35 460.78 53.72 460.80 59.05 C 460.80 190.37 460.80 321.69 460.80 453.00 C 460.79 458.71 460.99 464.47 459.90 470.10 C 457.29 484.68 447.93 497.84 435.07 505.16 C 428.21 509.23 420.35 511.27 412.46 512.00 L 100.46 512.00 C 90.51 511.46 80.66 508.23 72.58 502.33 C 61.04 494.13 53.19 480.94 51.60 466.86 C 50.94 460.95 51.28 455.00 51.20 449.07 C 51.21 316.70 51.19 184.34 51.21 51.97 C 51.02 38.58 56.26 25.19 65.66 15.62 C 74.69 6.21 87.40 0.62 100.40 0.00 M 91.72 18.79 C 78.11 23.11 68.14 36.66 68.29 50.98 C 68.24 187.33 68.28 323.68 68.27 460.03 C 68.03 470.39 72.74 480.73 80.84 487.22 C 87.26 492.55 95.68 495.20 103.99 494.94 C 205.95 494.90 307.92 495.01 409.88 494.88 C 427.94 495.25 444.03 479.06 443.71 461.03 C 443.76 342.01 443.72 222.98 443.73 103.96 C 443.65 85.60 443.88 67.23 443.62 48.87 C 442.87 31.63 427.18 16.80 409.91 17.12 C 308.29 16.99 206.67 17.11 105.05 17.06 C 100.56 16.98 96.00 17.33 91.72 18.79 Z" />
<path fill="#000000" opacity="1.00" d=" M 116.21 34.35 C 117.81 34.17 119.42 34.14 121.03 34.13 C 211.68 34.16 302.34 34.10 392.99 34.16 C 406.26 34.04 418.09 45.81 418.09 59.07 C 418.16 93.72 418.17 128.37 418.09 163.01 C 417.97 176.17 406.22 187.76 393.07 187.70 C 301.70 187.76 210.33 187.75 118.97 187.70 C 105.80 187.78 94.00 176.17 93.91 162.99 C 93.83 128.34 93.84 93.68 93.90 59.02 C 93.96 46.78 104.05 35.66 116.21 34.35 M 110.95 60.03 C 110.93 94.03 110.91 128.03 110.96 162.04 C 110.76 166.84 115.22 171.00 119.98 170.66 C 207.30 170.67 294.63 170.69 381.95 170.65 C 386.15 170.54 390.38 170.97 394.55 170.40 C 398.31 169.55 401.15 165.89 401.05 162.02 C 401.09 128.01 401.08 94.00 401.05 59.99 C 401.22 55.88 398.08 51.96 394.00 51.36 C 390.02 51.01 386.01 51.27 382.01 51.22 C 294.67 51.18 207.33 51.20 119.99 51.21 C 115.14 50.83 110.65 55.15 110.95 60.03 Z" />
<path fill="#000000" opacity="1.00" d=" M 128.02 76.91 C 127.85 72.51 131.60 68.46 136.00 68.30 C 140.40 67.92 144.65 71.49 144.98 75.90 C 145.20 80.70 144.99 85.50 145.07 90.30 C 151.66 83.81 158.13 77.18 164.74 70.71 C 167.98 67.45 173.84 67.70 176.84 71.16 C 179.83 74.28 179.79 79.69 176.72 82.76 C 167.40 92.20 157.97 101.52 148.61 110.93 C 157.84 120.21 167.14 129.44 176.37 138.72 C 179.75 141.77 179.97 147.51 176.79 150.77 C 173.78 154.12 168.09 154.40 164.84 151.25 C 158.18 144.76 151.72 138.06 145.08 131.55 C 144.98 136.40 145.22 141.25 144.96 146.10 C 144.56 150.45 140.34 153.94 135.98 153.57 C 131.65 153.37 127.94 149.45 128.03 145.11 C 127.98 122.38 127.99 99.64 128.02 76.91 Z" />
<path fill="#000000" opacity="1.00" d=" M 219.35 68.40 C 234.54 66.36 249.42 80.73 247.16 96.02 C 245.84 102.15 237.30 104.54 233.00 99.97 C 229.39 97.07 231.40 91.74 228.46 88.49 C 225.68 84.85 219.86 84.30 216.43 87.31 C 214.12 89.13 213.16 92.14 213.33 95.00 C 213.40 106.30 213.21 117.62 213.42 128.92 C 213.79 135.49 222.66 139.00 227.43 134.44 C 231.64 131.39 229.11 125.17 232.98 121.91 C 237.31 117.24 246.02 119.77 247.21 126.02 C 248.75 138.05 239.81 150.09 228.11 152.80 C 218.17 155.46 206.96 151.31 201.07 142.91 C 197.73 138.34 196.12 132.64 196.26 127.00 C 196.32 115.33 196.15 103.66 196.35 92.00 C 196.96 79.92 207.30 69.34 219.35 68.40 Z" />
<path fill="#000000" opacity="1.00" d=" M 273.97 74.03 C 280.56 68.53 290.01 66.83 298.14 69.55 C 308.12 72.69 315.49 82.51 315.69 92.98 C 315.77 110.33 315.74 127.68 315.71 145.04 C 315.78 148.96 312.82 152.65 308.96 153.39 C 304.23 154.56 299.08 150.81 298.75 145.96 C 298.56 139.99 298.70 134.02 298.70 128.05 C 293.00 127.95 287.30 128.02 281.60 128.00 C 281.53 133.98 281.72 139.96 281.52 145.93 C 281.20 150.50 276.63 154.17 272.10 153.53 C 267.88 153.13 264.42 149.21 264.56 144.98 C 264.51 127.99 264.54 111.00 264.54 94.02 C 264.45 86.37 268.03 78.83 273.97 74.03 M 281.68 93.02 C 281.48 98.99 281.65 104.96 281.61 110.93 C 287.29 110.93 292.98 110.95 298.67 110.92 C 298.61 104.97 298.78 99.02 298.59 93.07 C 298.32 88.78 294.32 85.20 290.03 85.35 C 285.84 85.30 281.95 88.82 281.68 93.02 Z" />
<path fill="#000000" opacity="1.00" d=" M 332.83 76.95 C 332.63 72.45 336.53 68.32 341.04 68.29 C 345.74 67.99 350.04 72.23 349.84 76.94 C 349.91 96.80 349.84 116.65 349.87 136.51 C 358.58 136.62 367.30 136.41 376.01 136.60 C 379.32 136.69 382.18 139.02 383.47 141.98 C 383.95 144.00 383.96 146.06 383.49 148.09 C 382.21 151.09 379.32 153.43 376.00 153.53 C 369.34 153.71 362.68 153.54 356.02 153.60 C 351.82 153.54 347.43 154.03 343.45 152.34 C 336.94 149.80 332.52 142.96 332.80 135.98 C 332.82 116.31 332.76 96.63 332.83 76.95 Z" />
<path fill="#000000" opacity="1.00" d=" M 108.40 213.47 C 123.29 213.15 138.19 213.42 153.08 213.33 C 159.06 213.47 165.28 212.68 171.00 214.92 C 180.53 218.30 187.45 227.83 187.69 237.94 C 187.80 244.61 187.70 251.29 187.73 257.96 C 187.67 262.32 188.05 266.78 186.87 271.04 C 184.60 280.02 177.06 287.39 168.02 289.43 C 164.10 290.37 160.03 290.10 156.04 290.14 C 140.68 290.10 125.32 290.21 109.96 290.09 C 97.23 289.89 85.86 278.83 85.41 266.09 C 85.26 256.72 85.33 247.35 85.37 237.99 C 85.53 225.57 96.03 214.43 108.40 213.47 M 102.42 238.95 C 102.40 247.65 102.33 256.36 102.46 265.06 C 102.57 269.43 106.60 273.15 110.95 273.04 C 124.56 273.06 138.18 273.14 151.79 272.99 C 155.56 273.07 159.33 273.20 163.09 272.97 C 167.47 272.62 170.92 268.41 170.65 264.07 C 170.67 255.71 170.70 247.35 170.64 238.99 C 170.76 234.70 167.17 230.69 162.86 230.47 C 158.99 230.29 155.11 230.46 151.24 230.39 C 137.81 230.43 124.39 230.35 110.96 230.42 C 106.39 230.28 102.29 234.37 102.42 238.95 Z" />
<path fill="#000000" opacity="1.00" d=" M 226.51 213.63 C 244.30 212.94 262.14 213.53 279.94 213.33 C 287.76 212.93 295.72 216.09 300.84 222.07 C 305.16 226.94 307.39 233.47 307.20 239.96 C 307.10 248.98 307.40 258.00 307.05 267.01 C 306.12 279.60 294.63 290.18 282.01 290.11 C 264.35 290.13 246.69 290.21 229.03 290.07 C 216.39 289.68 205.25 278.61 204.87 265.95 C 204.73 256.64 204.78 247.33 204.84 238.02 C 204.99 226.07 214.69 215.23 226.51 213.63 M 221.89 239.06 C 221.87 247.73 221.80 256.40 221.93 265.07 C 222.04 269.69 226.48 273.42 231.04 273.06 C 244.39 273.07 257.74 273.07 271.09 273.06 C 275.09 272.99 279.11 273.27 283.10 272.89 C 287.27 272.27 290.40 268.18 290.12 264.00 C 290.13 255.67 290.17 247.33 290.10 239.00 C 290.22 234.89 286.95 231.01 282.85 230.53 C 278.92 230.24 274.97 230.46 271.03 230.42 C 257.33 230.41 243.63 230.33 229.94 230.45 C 225.50 230.53 221.71 234.64 221.89 239.06 Z" />
<path fill="#000000" opacity="1.00" d=" M 326.53 228.43 C 330.48 219.38 340.06 213.19 349.95 213.34 C 367.30 213.35 384.64 213.28 401.99 213.38 C 413.72 213.54 424.51 222.91 426.22 234.53 C 426.67 245.86 426.62 257.21 426.26 268.54 C 424.77 280.34 413.84 289.89 401.99 290.08 C 385.00 290.21 368.00 290.09 351.00 290.14 C 340.12 290.68 329.44 283.60 325.82 273.32 C 323.31 266.48 324.57 259.08 324.27 251.97 C 324.61 244.12 323.07 235.80 326.53 228.43 M 341.36 238.92 C 341.33 247.62 341.27 256.32 341.39 265.01 C 341.48 269.46 345.60 273.22 350.02 273.05 C 363.60 273.04 377.18 273.16 390.76 272.98 C 394.53 273.08 398.33 273.20 402.11 272.95 C 406.45 272.57 409.86 268.38 409.59 264.06 C 409.60 255.70 409.63 247.33 409.57 238.96 C 409.68 234.73 406.18 230.78 401.95 230.48 C 398.03 230.27 394.11 230.46 390.20 230.39 C 376.78 230.42 363.36 230.36 349.95 230.42 C 345.37 230.26 341.23 234.34 341.36 238.92 Z" />
<path fill="#000000" opacity="1.00" d=" M 108.21 307.36 C 123.14 306.99 138.09 307.30 153.03 307.20 C 159.10 307.34 165.43 306.53 171.22 308.87 C 180.68 312.34 187.51 321.86 187.69 331.95 C 187.77 340.96 187.75 349.98 187.70 359.00 C 187.72 372.11 176.18 383.82 163.06 383.95 C 145.37 384.03 127.67 384.03 109.97 383.95 C 97.28 383.76 85.94 372.79 85.41 360.10 C 85.28 350.43 85.28 340.75 85.41 331.09 C 85.94 319.02 96.19 308.39 108.21 307.36 M 102.42 332.97 C 102.38 341.34 102.38 349.72 102.42 358.10 C 102.15 362.74 106.23 367.01 110.89 366.90 C 124.34 366.99 137.78 366.89 151.23 366.95 C 155.18 366.85 159.13 367.07 163.08 366.83 C 167.41 366.49 170.89 362.35 170.65 358.04 C 170.68 349.67 170.69 341.31 170.64 332.95 C 170.77 328.87 167.62 325.00 163.57 324.42 C 159.48 324.06 155.35 324.36 151.25 324.26 C 137.83 324.30 124.42 324.23 111.01 324.29 C 106.36 324.12 102.21 328.32 102.42 332.97 Z" />
<path fill="#000000" opacity="1.00" d=" M 227.25 307.40 C 245.48 306.95 263.74 307.30 281.98 307.22 C 293.78 307.15 304.69 316.34 306.72 327.94 C 307.66 334.25 307.01 340.67 307.20 347.02 C 306.95 354.05 308.13 361.43 305.27 368.09 C 301.59 377.37 292.06 383.94 282.06 383.97 C 266.04 384.05 250.03 383.97 234.02 384.01 C 229.30 384.12 224.43 383.86 220.10 381.80 C 211.15 378.00 204.91 368.70 204.83 358.98 C 204.81 349.67 204.71 340.36 204.89 331.05 C 205.43 319.15 215.42 308.64 227.25 307.40 M 221.89 333.01 C 221.84 341.32 221.86 349.62 221.88 357.93 C 221.56 362.46 225.37 366.79 229.94 366.88 C 243.63 367.00 257.33 366.92 271.03 366.91 C 275.07 366.85 279.12 367.14 283.15 366.75 C 287.25 366.10 290.36 362.10 290.12 357.97 C 290.14 349.66 290.16 341.35 290.11 333.05 C 290.30 328.90 287.06 324.92 282.93 324.40 C 278.97 324.09 274.99 324.33 271.03 324.28 C 257.33 324.29 243.64 324.20 229.95 324.32 C 225.47 324.39 221.67 328.56 221.89 333.01 Z" />
<path fill="#000000" opacity="1.00" d=" M 340.78 308.86 C 344.65 307.32 348.85 307.11 352.97 307.19 C 369.32 307.25 385.68 307.13 402.04 307.25 C 413.79 307.43 424.58 316.85 426.23 328.51 C 426.81 346.32 426.34 364.15 426.49 381.96 C 426.33 406.79 426.82 431.64 426.24 456.46 C 424.65 468.16 413.82 477.61 402.04 477.81 C 384.68 477.92 367.32 477.85 349.96 477.85 C 336.57 478.23 324.36 466.49 324.31 453.08 C 324.22 413.03 324.28 372.99 324.28 332.94 C 324.06 322.49 330.99 312.46 340.78 308.86 M 341.35 332.91 C 341.32 372.62 341.32 412.35 341.35 452.06 C 341.13 456.70 345.26 460.92 349.90 460.77 C 363.48 460.73 377.08 461.00 390.65 460.63 C 394.38 460.92 398.13 460.86 401.86 460.71 C 406.22 460.47 409.75 456.35 409.58 452.05 C 409.61 412.35 409.61 372.65 409.58 332.95 C 409.72 328.67 406.21 324.62 401.90 324.35 C 398.14 324.19 394.36 324.17 390.61 324.41 C 377.05 324.09 363.47 324.33 349.91 324.29 C 345.29 324.13 341.17 328.30 341.35 332.91 Z" />
<path fill="#000000" opacity="1.00" d=" M 365.26 367.13 C 371.50 366.70 377.77 366.99 384.03 366.97 C 387.36 366.86 390.21 369.05 391.85 371.82 C 392.44 374.25 392.40 376.75 391.80 379.19 C 388.53 385.54 380.78 383.82 374.97 384.00 C 370.02 383.74 363.72 385.32 360.24 380.73 C 356.26 376.11 359.21 368.02 365.26 367.13 Z" />
<path fill="#000000" opacity="1.00" d=" M 108.17 401.23 C 124.44 400.84 140.73 401.18 157.01 401.06 C 162.31 400.94 167.84 400.98 172.71 403.36 C 181.49 407.24 187.59 416.41 187.70 426.02 C 187.72 435.36 187.83 444.70 187.64 454.04 C 187.07 466.69 175.78 477.64 163.12 477.82 C 145.74 477.92 128.37 477.85 110.99 477.85 C 101.06 478.00 91.48 471.74 87.54 462.64 C 84.12 455.23 85.69 446.89 85.33 439.01 C 85.64 431.71 84.29 424.04 87.19 417.10 C 90.58 408.50 98.95 402.11 108.17 401.23 M 102.45 426.09 C 102.33 434.73 102.41 443.37 102.41 452.02 C 102.18 456.63 106.24 460.86 110.87 460.77 C 124.52 460.82 138.18 460.84 151.84 460.76 C 155.58 460.78 159.33 460.93 163.07 460.70 C 167.35 460.37 170.82 456.31 170.64 452.04 C 170.69 443.67 170.68 435.29 170.65 426.92 C 170.84 422.66 167.39 418.56 163.10 418.23 C 159.34 418.00 155.56 418.16 151.79 418.17 C 138.17 418.10 124.55 418.12 110.92 418.16 C 106.59 418.04 102.61 421.75 102.45 426.09 Z" />
<path fill="#000000" opacity="1.00" d=" M 227.15 401.28 C 245.41 400.79 263.71 401.17 281.98 401.09 C 294.93 400.96 306.62 412.10 307.12 425.03 C 307.25 434.70 307.27 444.37 307.11 454.04 C 306.53 466.88 294.93 477.91 282.07 477.83 C 264.35 477.85 246.63 477.94 228.91 477.79 C 216.39 477.36 205.38 466.42 204.88 453.90 C 204.74 444.29 204.75 434.67 204.88 425.07 C 205.36 413.15 215.31 402.57 227.15 401.28 M 221.88 427.05 C 221.86 435.37 221.85 443.68 221.89 452.00 C 221.65 456.49 225.49 460.69 230.00 460.75 C 243.67 460.86 257.35 460.79 271.02 460.78 C 274.93 460.74 278.86 460.96 282.76 460.68 C 286.98 460.22 290.30 456.21 290.11 452.00 C 290.15 443.67 290.15 435.35 290.12 427.03 C 290.31 423.09 287.50 419.27 283.64 418.40 C 279.47 417.83 275.23 418.25 271.03 418.15 C 257.34 418.15 243.65 418.07 229.96 418.19 C 225.41 418.25 221.59 422.53 221.88 427.05 Z" />
<path fill="#000000" opacity="1.00" d=" M 358.43 409.03 C 358.62 404.70 362.56 400.99 366.90 401.10 C 372.60 401.03 378.31 401.03 384.02 401.10 C 387.31 401.00 390.15 403.12 391.78 405.84 C 392.42 408.28 392.43 410.79 391.85 413.24 C 390.07 416.41 386.65 418.45 382.98 418.13 C 377.28 418.07 371.59 418.29 365.90 418.01 C 361.53 417.65 358.04 413.38 358.43 409.03 Z" />
</g>
<g id="#607d8bff">
<path fill="#607d8b" opacity="1.00" d=" M 91.72 18.79 C 96.00 17.33 100.56 16.98 105.05 17.06 C 206.67 17.11 308.29 16.99 409.91 17.12 C 420.10 25.25 426.73 37.84 426.64 50.99 C 426.71 108.98 426.63 166.98 426.68 224.98 C 426.76 228.17 426.70 231.37 426.22 234.53 C 424.51 222.91 413.72 213.54 401.99 213.38 C 384.64 213.28 367.30 213.35 349.95 213.34 C 340.06 213.19 330.48 219.38 326.53 228.43 C 323.07 235.80 324.61 244.12 324.27 251.97 C 324.57 259.08 323.31 266.48 325.82 273.32 C 329.44 283.60 340.12 290.68 351.00 290.14 C 368.00 290.09 385.00 290.21 401.99 290.08 C 413.84 289.89 424.77 280.34 426.26 268.54 C 426.63 271.68 426.77 274.84 426.68 278.00 C 426.66 293.00 426.65 308.00 426.69 323.01 C 426.68 324.85 426.43 326.68 426.23 328.51 C 424.58 316.85 413.79 307.43 402.04 307.25 C 385.68 307.13 369.32 307.25 352.97 307.19 C 348.85 307.11 344.65 307.32 340.78 308.86 C 330.99 312.46 324.06 322.49 324.28 332.94 C 324.28 372.99 324.22 413.03 324.31 453.08 C 324.36 466.49 336.57 478.23 349.96 477.85 C 367.32 477.85 384.68 477.92 402.04 477.81 C 413.82 477.61 424.65 468.16 426.24 456.46 C 428.32 471.04 421.24 485.86 409.88 494.88 C 307.92 495.01 205.95 494.90 103.99 494.94 C 95.68 495.20 87.26 492.55 80.84 487.22 C 72.74 480.73 68.03 470.39 68.27 460.03 C 68.28 323.68 68.24 187.33 68.29 50.98 C 68.14 36.66 78.11 23.11 91.72 18.79 M 116.21 34.35 C 104.05 35.66 93.96 46.78 93.90 59.02 C 93.84 93.68 93.83 128.34 93.91 162.99 C 94.00 176.17 105.80 187.78 118.97 187.70 C 210.33 187.75 301.70 187.76 393.07 187.70 C 406.22 187.76 417.97 176.17 418.09 163.01 C 418.17 128.37 418.16 93.72 418.09 59.07 C 418.09 45.81 406.26 34.04 392.99 34.16 C 302.34 34.10 211.68 34.16 121.03 34.13 C 119.42 34.14 117.81 34.17 116.21 34.35 M 108.40 213.47 C 96.03 214.43 85.53 225.57 85.37 237.99 C 85.33 247.35 85.26 256.72 85.41 266.09 C 85.86 278.83 97.23 289.89 109.96 290.09 C 125.32 290.21 140.68 290.10 156.04 290.14 C 160.03 290.10 164.10 290.37 168.02 289.43 C 177.06 287.39 184.60 280.02 186.87 271.04 C 188.05 266.78 187.67 262.32 187.73 257.96 C 187.70 251.29 187.80 244.61 187.69 237.94 C 187.45 227.83 180.53 218.30 171.00 214.92 C 165.28 212.68 159.06 213.47 153.08 213.33 C 138.19 213.42 123.29 213.15 108.40 213.47 M 226.51 213.63 C 214.69 215.23 204.99 226.07 204.84 238.02 C 204.78 247.33 204.73 256.64 204.87 265.95 C 205.25 278.61 216.39 289.68 229.03 290.07 C 246.69 290.21 264.35 290.13 282.01 290.11 C 294.63 290.18 306.12 279.60 307.05 267.01 C 307.40 258.00 307.10 248.98 307.20 239.96 C 307.39 233.47 305.16 226.94 300.84 222.07 C 295.72 216.09 287.76 212.93 279.94 213.33 C 262.14 213.53 244.30 212.94 226.51 213.63 M 108.21 307.36 C 96.19 308.39 85.94 319.02 85.41 331.09 C 85.28 340.75 85.28 350.43 85.41 360.10 C 85.94 372.79 97.28 383.76 109.97 383.95 C 127.67 384.03 145.37 384.03 163.06 383.95 C 176.18 383.82 187.72 372.11 187.70 359.00 C 187.75 349.98 187.77 340.96 187.69 331.95 C 187.51 321.86 180.68 312.34 171.22 308.87 C 165.43 306.53 159.10 307.34 153.03 307.20 C 138.09 307.30 123.14 306.99 108.21 307.36 M 227.25 307.40 C 215.42 308.64 205.43 319.15 204.89 331.05 C 204.71 340.36 204.81 349.67 204.83 358.98 C 204.91 368.70 211.15 378.00 220.10 381.80 C 224.43 383.86 229.30 384.12 234.02 384.01 C 250.03 383.97 266.04 384.05 282.06 383.97 C 292.06 383.94 301.59 377.37 305.27 368.09 C 308.13 361.43 306.95 354.05 307.20 347.02 C 307.01 340.67 307.66 334.25 306.72 327.94 C 304.69 316.34 293.78 307.15 281.98 307.22 C 263.74 307.30 245.48 306.95 227.25 307.40 M 108.17 401.23 C 98.95 402.11 90.58 408.50 87.19 417.10 C 84.29 424.04 85.64 431.71 85.33 439.01 C 85.69 446.89 84.12 455.23 87.54 462.64 C 91.48 471.74 101.06 478.00 110.99 477.85 C 128.37 477.85 145.74 477.92 163.12 477.82 C 175.78 477.64 187.07 466.69 187.64 454.04 C 187.83 444.70 187.72 435.36 187.70 426.02 C 187.59 416.41 181.49 407.24 172.71 403.36 C 167.84 400.98 162.31 400.94 157.01 401.06 C 140.73 401.18 124.44 400.84 108.17 401.23 M 227.15 401.28 C 215.31 402.57 205.36 413.15 204.88 425.07 C 204.75 434.67 204.74 444.29 204.88 453.90 C 205.38 466.42 216.39 477.36 228.91 477.79 C 246.63 477.94 264.35 477.85 282.07 477.83 C 294.93 477.91 306.53 466.88 307.11 454.04 C 307.27 444.37 307.25 434.70 307.12 425.03 C 306.62 412.10 294.93 400.96 281.98 401.09 C 263.71 401.17 245.41 400.79 227.15 401.28 Z" />
</g>
<g id="#37474fff">
<path fill="#37474f" opacity="1.00" d=" M 409.91 17.12 C 427.18 16.80 442.87 31.63 443.62 48.87 C 443.88 67.23 443.65 85.60 443.73 103.96 C 443.72 222.98 443.76 342.01 443.71 461.03 C 444.03 479.06 427.94 495.25 409.88 494.88 C 421.24 485.86 428.32 471.04 426.24 456.46 C 426.82 431.64 426.33 406.79 426.49 381.96 C 426.34 364.15 426.81 346.32 426.23 328.51 C 426.43 326.68 426.68 324.85 426.69 323.01 C 426.65 308.00 426.66 293.00 426.68 278.00 C 426.77 274.84 426.63 271.68 426.26 268.54 C 426.62 257.21 426.67 245.86 426.22 234.53 C 426.70 231.37 426.76 228.17 426.68 224.98 C 426.63 166.98 426.71 108.98 426.64 50.99 C 426.73 37.84 420.10 25.25 409.91 17.12 Z" />
<path fill="#37474f" opacity="1.00" d=" M 392.12 328.84 C 393.00 331.13 393.07 333.61 393.04 336.04 C 392.90 349.02 393.23 362.00 392.68 374.97 C 393.08 386.31 393.17 397.66 392.67 409.00 C 393.11 421.00 393.00 433.01 393.01 445.02 C 392.94 448.73 393.46 452.58 392.13 456.14 C 392.70 447.76 392.30 439.35 392.42 430.96 C 392.27 425.06 392.86 419.10 391.85 413.24 C 392.43 410.79 392.42 408.28 391.78 405.84 C 392.78 401.30 392.34 396.63 392.42 392.03 C 392.37 387.74 392.73 383.41 391.80 379.19 C 392.40 376.75 392.44 374.25 391.85 371.82 C 392.87 365.92 392.26 359.92 392.42 353.98 C 392.29 345.60 392.72 337.20 392.12 328.84 Z" />
</g>
<g id="#02a9f4ff">
<path fill="#02a9f4" opacity="1.00" d=" M 110.95 60.03 C 110.65 55.15 115.14 50.83 119.99 51.21 C 207.33 51.20 294.67 51.18 382.01 51.22 C 383.19 54.34 384.13 57.59 384.01 60.97 C 384.00 86.31 383.97 111.65 384.03 137.00 C 384.00 138.67 383.70 140.32 383.47 141.98 C 382.18 139.02 379.32 136.69 376.01 136.60 C 367.30 136.41 358.58 136.62 349.87 136.51 C 349.84 116.65 349.91 96.80 349.84 76.94 C 350.04 72.23 345.74 67.99 341.04 68.29 C 336.53 68.32 332.63 72.45 332.83 76.95 C 332.76 96.63 332.82 116.31 332.80 135.98 C 332.52 142.96 336.94 149.80 343.45 152.34 C 347.43 154.03 351.82 153.54 356.02 153.60 C 362.68 153.54 369.34 153.71 376.00 153.53 C 379.32 153.43 382.21 151.09 383.49 148.09 C 384.22 155.56 384.98 163.56 381.95 170.65 C 294.63 170.69 207.30 170.67 119.98 170.66 C 115.22 171.00 110.76 166.84 110.96 162.04 C 110.91 128.03 110.93 94.03 110.95 60.03 M 128.02 76.91 C 127.99 99.64 127.98 122.38 128.03 145.11 C 127.94 149.45 131.65 153.37 135.98 153.57 C 140.34 153.94 144.56 150.45 144.96 146.10 C 145.22 141.25 144.98 136.40 145.08 131.55 C 151.72 138.06 158.18 144.76 164.84 151.25 C 168.09 154.40 173.78 154.12 176.79 150.77 C 179.97 147.51 179.75 141.77 176.37 138.72 C 167.14 129.44 157.84 120.21 148.61 110.93 C 157.97 101.52 167.40 92.20 176.72 82.76 C 179.79 79.69 179.83 74.28 176.84 71.16 C 173.84 67.70 167.98 67.45 164.74 70.71 C 158.13 77.18 151.66 83.81 145.07 90.30 C 144.99 85.50 145.20 80.70 144.98 75.90 C 144.65 71.49 140.40 67.92 136.00 68.30 C 131.60 68.46 127.85 72.51 128.02 76.91 M 219.35 68.40 C 207.30 69.34 196.96 79.92 196.35 92.00 C 196.15 103.66 196.32 115.33 196.26 127.00 C 196.12 132.64 197.73 138.34 201.07 142.91 C 206.96 151.31 218.17 155.46 228.11 152.80 C 239.81 150.09 248.75 138.05 247.21 126.02 C 246.02 119.77 237.31 117.24 232.98 121.91 C 229.11 125.17 231.64 131.39 227.43 134.44 C 222.66 139.00 213.79 135.49 213.42 128.92 C 213.21 117.62 213.40 106.30 213.33 95.00 C 213.16 92.14 214.12 89.13 216.43 87.31 C 219.86 84.30 225.68 84.85 228.46 88.49 C 231.40 91.74 229.39 97.07 233.00 99.97 C 237.30 104.54 245.84 102.15 247.16 96.02 C 249.42 80.73 234.54 66.36 219.35 68.40 M 273.97 74.03 C 268.03 78.83 264.45 86.37 264.54 94.02 C 264.54 111.00 264.51 127.99 264.56 144.98 C 264.42 149.21 267.88 153.13 272.10 153.53 C 276.63 154.17 281.20 150.50 281.52 145.93 C 281.72 139.96 281.53 133.98 281.60 128.00 C 287.30 128.02 293.00 127.95 298.70 128.05 C 298.70 134.02 298.56 139.99 298.75 145.96 C 299.08 150.81 304.23 154.56 308.96 153.39 C 312.82 152.65 315.78 148.96 315.71 145.04 C 315.74 127.68 315.77 110.33 315.69 92.98 C 315.49 82.51 308.12 72.69 298.14 69.55 C 290.01 66.83 280.56 68.53 273.97 74.03 Z" />
<path fill="#02a9f4" opacity="1.00" d=" M 281.68 93.02 C 281.95 88.82 285.84 85.30 290.03 85.35 C 294.32 85.20 298.32 88.78 298.59 93.07 C 298.78 99.02 298.61 104.97 298.67 110.92 C 292.98 110.95 287.29 110.93 281.61 110.93 C 281.65 104.96 281.48 98.99 281.68 93.02 Z" />
</g>
<g id="#0377bcff">
<path fill="#0377bc" opacity="1.00" d=" M 382.01 51.22 C 386.01 51.27 390.02 51.01 394.00 51.36 C 398.08 51.96 401.22 55.88 401.05 59.99 C 401.08 94.00 401.09 128.01 401.05 162.02 C 401.15 165.89 398.31 169.55 394.55 170.40 C 390.38 170.97 386.15 170.54 381.95 170.65 C 384.98 163.56 384.22 155.56 383.49 148.09 C 383.96 146.06 383.95 144.00 383.47 141.98 C 383.70 140.32 384.00 138.67 384.03 137.00 C 383.97 111.65 384.00 86.31 384.01 60.97 C 384.13 57.59 383.19 54.34 382.01 51.22 Z" />
</g>
<g id="#3f51b5ff">
<path fill="#3f51b5" opacity="1.00" d=" M 102.42 238.95 C 102.29 234.37 106.39 230.28 110.96 230.42 C 124.39 230.35 137.81 230.43 151.24 230.39 C 154.79 236.34 153.39 243.45 153.63 250.01 C 153.36 257.68 154.70 265.66 151.79 272.99 C 138.18 273.14 124.56 273.06 110.95 273.04 C 106.60 273.15 102.57 269.43 102.46 265.06 C 102.33 256.36 102.40 247.65 102.42 238.95 Z" />
<path fill="#3f51b5" opacity="1.00" d=" M 221.89 239.06 C 221.71 234.64 225.50 230.53 229.94 230.45 C 243.63 230.33 257.33 230.41 271.03 230.42 C 274.08 237.19 272.80 244.75 273.04 251.93 C 272.82 258.99 274.05 266.39 271.09 273.06 C 257.74 273.07 244.39 273.07 231.04 273.06 C 226.48 273.42 222.04 269.69 221.93 265.07 C 221.80 256.40 221.87 247.73 221.89 239.06 Z" />
<path fill="#3f51b5" opacity="1.00" d=" M 341.36 238.92 C 341.23 234.34 345.37 230.26 349.95 230.42 C 363.36 230.36 376.78 230.42 390.20 230.39 C 393.64 235.99 392.42 242.75 392.59 248.98 C 392.26 256.99 393.71 265.30 390.76 272.98 C 377.18 273.16 363.60 273.04 350.02 273.05 C 345.60 273.22 341.48 269.46 341.39 265.01 C 341.27 256.32 341.33 247.62 341.36 238.92 Z" />
<path fill="#3f51b5" opacity="1.00" d=" M 102.42 332.97 C 102.21 328.32 106.36 324.12 111.01 324.29 C 124.42 324.23 137.83 324.30 151.25 324.26 C 152.66 326.95 153.73 329.88 153.63 332.97 C 153.67 341.32 153.61 349.68 153.63 358.03 C 153.78 361.20 152.69 364.20 151.23 366.95 C 137.78 366.89 124.34 366.99 110.89 366.90 C 106.23 367.01 102.15 362.74 102.42 358.10 C 102.38 349.72 102.38 341.34 102.42 332.97 Z" />
<path fill="#3f51b5" opacity="1.00" d=" M 221.89 333.01 C 221.67 328.56 225.47 324.39 229.95 324.32 C 243.64 324.20 257.33 324.29 271.03 324.28 C 274.11 331.12 272.79 338.75 273.04 346.00 C 272.80 352.98 274.08 360.35 271.03 366.91 C 257.33 366.92 243.63 367.00 229.94 366.88 C 225.37 366.79 221.56 362.46 221.88 357.93 C 221.86 349.62 221.84 341.32 221.89 333.01 Z" />
<path fill="#3f51b5" opacity="1.00" d=" M 341.35 332.91 C 341.17 328.30 345.29 324.13 349.91 324.29 C 363.47 324.33 377.05 324.09 390.61 324.41 C 391.10 325.88 391.64 327.35 392.12 328.84 C 392.72 337.20 392.29 345.60 392.42 353.98 C 392.26 359.92 392.87 365.92 391.85 371.82 C 390.21 369.05 387.36 366.86 384.03 366.97 C 377.77 366.99 371.50 366.70 365.26 367.13 C 359.21 368.02 356.26 376.11 360.24 380.73 C 363.72 385.32 370.02 383.74 374.97 384.00 C 380.78 383.82 388.53 385.54 391.80 379.19 C 392.73 383.41 392.37 387.74 392.42 392.03 C 392.34 396.63 392.78 401.30 391.78 405.84 C 390.15 403.12 387.31 401.00 384.02 401.10 C 378.31 401.03 372.60 401.03 366.90 401.10 C 362.56 400.99 358.62 404.70 358.43 409.03 C 358.04 413.38 361.53 417.65 365.90 418.01 C 371.59 418.29 377.28 418.07 382.98 418.13 C 386.65 418.45 390.07 416.41 391.85 413.24 C 392.86 419.10 392.27 425.06 392.42 430.96 C 392.30 439.35 392.70 447.76 392.13 456.14 C 391.66 457.64 391.13 459.12 390.65 460.63 C 377.08 461.00 363.48 460.73 349.90 460.77 C 345.26 460.92 341.13 456.70 341.35 452.06 C 341.32 412.35 341.32 372.62 341.35 332.91 Z" />
<path fill="#3f51b5" opacity="1.00" d=" M 102.45 426.09 C 102.61 421.75 106.59 418.04 110.92 418.16 C 124.55 418.12 138.17 418.10 151.79 418.17 C 154.49 424.83 153.48 432.09 153.63 439.08 C 153.45 446.32 154.50 453.81 151.84 460.76 C 138.18 460.84 124.52 460.82 110.87 460.77 C 106.24 460.86 102.18 456.63 102.41 452.02 C 102.41 443.37 102.33 434.73 102.45 426.09 Z" />
<path fill="#3f51b5" opacity="1.00" d=" M 221.88 427.05 C 221.59 422.53 225.41 418.25 229.96 418.19 C 243.65 418.07 257.34 418.15 271.03 418.15 C 274.20 425.03 272.76 432.73 273.05 440.04 C 272.82 446.96 274.06 454.27 271.02 460.78 C 257.35 460.79 243.67 460.86 230.00 460.75 C 225.49 460.69 221.65 456.49 221.89 452.00 C 221.85 443.68 221.86 435.37 221.88 427.05 Z" />
</g>
<g id="#283593ff">
<path fill="#283593" opacity="1.00" d=" M 151.24 230.39 C 155.11 230.46 158.99 230.29 162.86 230.47 C 167.17 230.69 170.76 234.70 170.64 238.99 C 170.70 247.35 170.67 255.71 170.65 264.07 C 170.92 268.41 167.47 272.62 163.09 272.97 C 159.33 273.20 155.56 273.07 151.79 272.99 C 154.70 265.66 153.36 257.68 153.63 250.01 C 153.39 243.45 154.79 236.34 151.24 230.39 Z" />
<path fill="#283593" opacity="1.00" d=" M 271.03 230.42 C 274.97 230.46 278.92 230.24 282.85 230.53 C 286.95 231.01 290.22 234.89 290.10 239.00 C 290.17 247.33 290.13 255.67 290.12 264.00 C 290.40 268.18 287.27 272.27 283.10 272.89 C 279.11 273.27 275.09 272.99 271.09 273.06 C 274.05 266.39 272.82 258.99 273.04 251.93 C 272.80 244.75 274.08 237.19 271.03 230.42 Z" />
<path fill="#283593" opacity="1.00" d=" M 390.20 230.39 C 394.11 230.46 398.03 230.27 401.95 230.48 C 406.18 230.78 409.68 234.73 409.57 238.96 C 409.63 247.33 409.60 255.70 409.59 264.06 C 409.86 268.38 406.45 272.57 402.11 272.95 C 398.33 273.20 394.53 273.08 390.76 272.98 C 393.71 265.30 392.26 256.99 392.59 248.98 C 392.42 242.75 393.64 235.99 390.20 230.39 Z" />
<path fill="#283593" opacity="1.00" d=" M 151.25 324.26 C 155.35 324.36 159.48 324.06 163.57 324.42 C 167.62 325.00 170.77 328.87 170.64 332.95 C 170.69 341.31 170.68 349.67 170.65 358.04 C 170.89 362.35 167.41 366.49 163.08 366.83 C 159.13 367.07 155.18 366.85 151.23 366.95 C 152.69 364.20 153.78 361.20 153.63 358.03 C 153.61 349.68 153.67 341.32 153.63 332.97 C 153.73 329.88 152.66 326.95 151.25 324.26 Z" />
<path fill="#283593" opacity="1.00" d=" M 271.03 324.28 C 274.99 324.33 278.97 324.09 282.93 324.40 C 287.06 324.92 290.30 328.90 290.11 333.05 C 290.16 341.35 290.14 349.66 290.12 357.97 C 290.36 362.10 287.25 366.10 283.15 366.75 C 279.12 367.14 275.07 366.85 271.03 366.91 C 274.08 360.35 272.80 352.98 273.04 346.00 C 272.79 338.75 274.11 331.12 271.03 324.28 Z" />
<path fill="#283593" opacity="1.00" d=" M 390.61 324.41 C 394.36 324.17 398.14 324.19 401.90 324.35 C 406.21 324.62 409.72 328.67 409.58 332.95 C 409.61 372.65 409.61 412.35 409.58 452.05 C 409.75 456.35 406.22 460.47 401.86 460.71 C 398.13 460.86 394.38 460.92 390.65 460.63 C 391.13 459.12 391.66 457.64 392.13 456.14 C 393.46 452.58 392.94 448.73 393.01 445.02 C 393.00 433.01 393.11 421.00 392.67 409.00 C 393.17 397.66 393.08 386.31 392.68 374.97 C 393.23 362.00 392.90 349.02 393.04 336.04 C 393.07 333.61 393.00 331.13 392.12 328.84 C 391.64 327.35 391.10 325.88 390.61 324.41 Z" />
<path fill="#283593" opacity="1.00" d=" M 151.79 418.17 C 155.56 418.16 159.34 418.00 163.10 418.23 C 167.39 418.56 170.84 422.66 170.65 426.92 C 170.68 435.29 170.69 443.67 170.64 452.04 C 170.82 456.31 167.35 460.37 163.07 460.70 C 159.33 460.93 155.58 460.78 151.84 460.76 C 154.50 453.81 153.45 446.32 153.63 439.08 C 153.48 432.09 154.49 424.83 151.79 418.17 Z" />
<path fill="#283593" opacity="1.00" d=" M 271.03 418.15 C 275.23 418.25 279.47 417.83 283.64 418.40 C 287.50 419.27 290.31 423.09 290.12 427.03 C 290.15 435.35 290.15 443.67 290.11 452.00 C 290.30 456.21 286.98 460.22 282.76 460.68 C 278.86 460.96 274.93 460.74 271.02 460.78 C 274.06 454.27 272.82 446.96 273.05 440.04 C 272.76 432.73 274.20 425.03 271.03 418.15 Z" />
</g>
</svg>
