<?xml version="1.0" encoding="UTF-8" ?>
<!DOCTYPE svg PUBLIC "-//W3C//DTD SVG 1.1//EN" "http://www.w3.org/Graphics/SVG/1.1/DTD/svg11.dtd">
<svg width="512pt" height="512pt" viewBox="0 0 512 512" version="1.1" xmlns="http://www.w3.org/2000/svg">
<g id="#3d4751ff">
<path fill="#3d4751" opacity="1.00" d=" M 244.37 0.00 L 260.80 0.00 L 261.55 0.04 C 237.49 7.23 214.32 18.03 194.43 33.50 C 184.05 41.65 174.04 50.42 165.70 60.69 C 139.05 90.94 122.48 129.84 119.04 170.00 C 118.01 181.06 117.58 192.23 118.63 203.31 C 118.61 203.70 118.57 204.47 118.56 204.86 C 118.28 208.24 118.30 211.63 118.33 215.02 C 118.33 243.37 118.33 271.71 118.33 300.06 C 118.33 303.10 118.15 306.17 118.67 309.19 C 117.94 313.73 118.46 318.34 117.89 322.89 C 107.55 322.49 97.08 318.73 89.69 311.31 C 82.67 304.74 78.05 295.61 77.05 286.04 C 76.68 270.19 77.29 254.31 76.74 238.46 C 77.26 223.97 76.79 209.46 76.98 194.96 C 77.16 190.38 76.20 185.45 72.88 182.08 C 70.18 178.95 66.08 177.58 62.06 177.30 C 64.92 140.50 79.14 104.78 101.67 75.61 C 110.93 63.45 121.97 52.78 133.51 42.80 C 140.60 37.81 147.44 32.41 154.96 28.04 C 181.86 11.46 212.92 2.20 244.37 0.00 Z" />
</g>
<g id="#495560ff">
<path fill="#495560" opacity="1.00" d=" M 194.43 33.50 C 214.32 18.03 237.49 7.23 261.55 0.04 C 288.07 0.98 314.44 7.15 338.41 18.59 C 370.86 33.91 398.84 58.47 418.37 88.57 C 435.63 115.00 446.13 145.72 448.93 177.14 C 441.44 177.24 434.57 183.43 434.25 191.02 C 434.12 206.82 434.23 222.62 434.21 238.43 C 434.16 252.92 434.26 267.41 434.16 281.90 C 434.03 292.66 429.45 303.26 421.72 310.74 C 414.15 318.21 403.61 322.39 393.00 322.45 C 392.98 317.69 392.99 312.93 392.99 308.16 C 393.01 276.77 392.98 245.39 393.00 214.00 C 392.99 209.51 393.31 204.83 391.53 200.59 C 388.55 192.77 380.40 187.32 372.02 187.59 C 294.03 187.62 216.03 187.56 138.04 187.62 C 128.94 187.70 120.92 194.65 118.63 203.31 C 117.58 192.23 118.01 181.06 119.04 170.00 C 122.48 129.84 139.05 90.94 165.70 60.69 C 174.04 50.42 184.05 41.65 194.43 33.50 Z" />
</g>
<g id="#333941ff">
<path fill="#333941" opacity="1.00" d=" M 77.41 66.38 C 92.47 52.15 112.75 43.38 133.51 42.80 C 121.97 52.78 110.93 63.45 101.67 75.61 C 79.14 104.78 64.92 140.50 62.06 177.30 C 55.47 183.22 51.23 191.46 50.07 200.23 C 49.93 176.48 50.03 152.72 50.02 128.96 C 50.11 105.51 60.28 82.37 77.41 66.38 Z" />
<path fill="#333941" opacity="1.00" d=" M 186.19 203.25 C 189.56 201.42 194.17 202.72 196.05 206.07 C 197.80 209.07 196.93 212.71 197.13 216.01 C 197.05 219.86 197.91 224.65 194.42 227.34 C 190.59 230.83 183.70 228.74 182.45 223.71 C 181.78 219.50 182.27 215.20 182.13 210.95 C 181.86 207.88 183.35 204.64 186.19 203.25 Z" />
<path fill="#333941" opacity="1.00" d=" M 317.29 203.32 C 320.83 201.28 325.79 202.85 327.53 206.53 C 328.91 209.50 328.18 212.88 328.36 216.03 C 328.30 219.93 329.11 224.80 325.51 227.45 C 321.43 231.01 314.26 228.36 313.51 223.00 C 313.19 218.66 313.39 214.30 313.38 209.95 C 313.33 207.24 314.89 204.58 317.29 203.32 Z" />
<path fill="#333941" opacity="1.00" d=" M 50.07 207.73 C 51.67 222.22 62.67 234.78 76.74 238.46 C 77.29 254.31 76.68 270.19 77.05 286.04 C 78.05 295.61 82.67 304.74 89.69 311.31 C 97.08 318.73 107.55 322.49 117.89 322.89 C 118.46 318.34 117.94 313.73 118.67 309.19 C 123.78 314.72 128.71 320.43 134.38 325.41 C 128.94 346.21 115.06 364.60 96.64 375.65 C 82.72 384.19 66.29 388.11 50.03 387.76 C 50.02 327.75 49.93 267.74 50.07 207.73 Z" />
<path fill="#333941" opacity="1.00" d=" M 235.46 234.70 C 238.92 233.39 242.92 235.11 244.65 238.30 C 248.08 244.20 256.56 246.12 262.14 242.15 C 265.32 240.35 266.22 236.07 269.78 234.80 C 273.80 233.06 278.89 235.73 279.78 240.01 C 280.85 244.08 277.81 247.54 275.36 250.40 C 267.76 258.91 254.57 261.67 244.21 256.87 C 238.73 254.49 234.08 250.23 231.24 244.98 C 229.20 241.17 231.42 236.04 235.46 234.70 Z" />
</g>
<g id="#ffbd86ff">
<path fill="#ffbd86" opacity="1.00" d=" M 62.06 177.30 C 66.08 177.58 70.18 178.95 72.88 182.08 C 76.20 185.45 77.16 190.38 76.98 194.96 C 76.79 209.46 77.26 223.97 76.74 238.46 C 62.67 234.78 51.67 222.22 50.07 207.73 C 50.01 205.23 50.01 202.73 50.07 200.23 C 51.23 191.46 55.47 183.22 62.06 177.30 Z" />
<path fill="#ffbd86" opacity="1.00" d=" M 434.25 191.02 C 434.57 183.43 441.44 177.24 448.93 177.14 C 455.17 182.76 459.63 190.46 460.77 198.83 C 462.29 208.75 459.30 219.24 452.77 226.87 C 448.01 232.58 441.36 236.54 434.21 238.43 C 434.23 222.62 434.12 206.82 434.25 191.02 Z" />
<path fill="#ffbd86" opacity="1.00" d=" M 118.33 215.02 C 118.30 211.63 118.28 208.24 118.56 204.86 C 120.91 247.05 138.96 288.21 168.65 318.31 C 191.81 342.34 221.86 359.74 254.34 367.54 C 261.03 369.02 267.79 370.18 274.48 371.71 C 254.07 374.27 233.27 372.45 213.29 367.78 C 204.81 365.66 196.45 363.03 188.36 359.69 C 168.48 351.69 150.12 339.95 134.38 325.41 C 128.71 320.43 123.78 314.72 118.67 309.19 C 118.15 306.17 118.33 303.10 118.33 300.06 C 118.33 271.71 118.33 243.37 118.33 215.02 Z" />
</g>
<g id="#fed2a4ff">
<path fill="#fed2a4" opacity="1.00" d=" M 118.63 203.31 C 120.92 194.65 128.94 187.70 138.04 187.62 C 216.03 187.56 294.03 187.62 372.02 187.59 C 380.40 187.32 388.55 192.77 391.53 200.59 C 393.31 204.83 392.99 209.51 393.00 214.00 C 392.98 245.39 393.01 276.77 392.99 308.16 C 374.09 330.83 349.60 348.85 322.18 359.81 C 306.94 366.01 290.81 369.86 274.48 371.71 C 267.79 370.18 261.03 369.02 254.34 367.54 C 221.86 359.74 191.81 342.34 168.65 318.31 C 138.96 288.21 120.91 247.05 118.56 204.86 C 118.57 204.47 118.61 203.70 118.63 203.31 M 186.19 203.25 C 183.35 204.64 181.86 207.88 182.13 210.95 C 182.27 215.20 181.78 219.50 182.45 223.71 C 183.70 228.74 190.59 230.83 194.42 227.34 C 197.91 224.65 197.05 219.86 197.13 216.01 C 196.93 212.71 197.80 209.07 196.05 206.07 C 194.17 202.72 189.56 201.42 186.19 203.25 M 317.29 203.32 C 314.89 204.58 313.33 207.24 313.38 209.95 C 313.39 214.30 313.19 218.66 313.51 223.00 C 314.26 228.36 321.43 231.01 325.51 227.45 C 329.11 224.80 328.30 219.93 328.36 216.03 C 328.18 212.88 328.91 209.50 327.53 206.53 C 325.79 202.85 320.83 201.28 317.29 203.32 M 235.46 234.70 C 231.42 236.04 229.20 241.17 231.24 244.98 C 234.08 250.23 238.73 254.49 244.21 256.87 C 254.57 261.67 267.76 258.91 275.36 250.40 C 277.81 247.54 280.85 244.08 279.78 240.01 C 278.89 235.73 273.80 233.06 269.78 234.80 C 266.22 236.07 265.32 240.35 262.14 242.15 C 256.56 246.12 248.08 244.20 244.65 238.30 C 242.92 235.11 238.92 233.39 235.46 234.70 M 181.49 236.57 C 176.43 237.98 174.54 245.05 178.27 248.77 C 181.78 252.59 187.43 250.79 191.98 251.22 C 195.78 251.54 200.46 250.98 202.19 247.02 C 204.62 242.59 201.19 236.46 196.13 236.29 C 191.26 236.26 186.31 235.83 181.49 236.57 M 313.28 236.43 C 309.89 237.17 307.32 240.50 307.53 243.97 C 307.56 247.87 311.11 251.31 315.01 251.17 C 319.00 251.22 322.99 251.26 326.98 251.15 C 330.39 251.16 333.47 248.42 334.05 245.10 C 335.01 240.82 331.44 236.28 327.06 236.26 C 322.47 236.21 317.85 235.97 313.28 236.43 Z" />
</g>
<g id="#fb695bff">
<path fill="#fb695b" opacity="1.00" d=" M 181.49 236.57 C 186.31 235.83 191.26 236.26 196.13 236.29 C 201.19 236.46 204.62 242.59 202.19 247.02 C 200.46 250.98 195.78 251.54 191.98 251.22 C 187.43 250.79 181.78 252.59 178.27 248.77 C 174.54 245.05 176.43 237.98 181.49 236.57 Z" />
<path fill="#fb695b" opacity="1.00" d=" M 313.28 236.43 C 317.85 235.97 322.47 236.21 327.06 236.26 C 331.44 236.28 335.01 240.82 334.05 245.10 C 333.47 248.42 330.39 251.16 326.98 251.15 C 322.99 251.26 319.00 251.22 315.01 251.17 C 311.11 251.31 307.56 247.87 307.53 243.97 C 307.32 240.50 309.89 237.17 313.28 236.43 Z" />
</g>
<g id="#00c755ff">
<path fill="#00c755" opacity="1.00" d=" M 144.29 388.22 C 157.30 376.42 172.25 366.69 188.36 359.69 C 196.45 363.03 204.81 365.66 213.29 367.78 C 210.24 370.33 206.75 372.25 203.44 374.41 C 189.26 384.20 176.47 396.01 165.83 409.57 L 165.63 409.82 C 158.67 402.48 151.26 395.57 144.29 388.22 Z" />
</g>
<g id="#29ce69ff">
<path fill="#29ce69" opacity="1.00" d=" M 274.48 371.71 C 290.81 369.86 306.94 366.01 322.18 359.81 C 323.19 360.03 324.17 360.35 325.12 360.76 C 340.22 367.83 354.39 376.98 366.70 388.25 C 344.90 410.28 322.88 432.10 301.00 454.05 C 294.60 460.31 288.64 467.30 280.63 471.60 C 265.20 480.35 245.25 480.18 229.94 471.22 C 222.37 467.03 216.68 460.37 210.57 454.40 C 195.67 439.45 180.66 424.60 165.83 409.57 C 176.47 396.01 189.26 384.20 203.44 374.41 C 206.75 372.25 210.24 370.33 213.29 367.78 C 233.27 372.45 254.07 374.27 274.48 371.71 Z" />
</g>
<g id="#194391ff">
<path fill="#194391" opacity="1.00" d=" M 95.95 464.91 C 104.51 435.49 121.63 408.79 144.29 388.22 C 151.26 395.57 158.67 402.48 165.63 409.82 C 143.08 438.70 130.22 475.30 130.82 512.00 L 89.11 512.00 C 89.25 496.10 91.42 480.17 95.95 464.91 Z" />
</g>
<g id="#2a4f95ff">
<path fill="#2a4f95" opacity="1.00" d=" M 366.70 388.25 C 373.94 395.01 380.84 402.17 386.88 410.04 C 409.48 438.87 421.90 475.38 421.84 512.00 L 130.82 512.00 C 130.22 475.30 143.08 438.70 165.63 409.82 L 165.83 409.57 C 180.66 424.60 195.67 439.45 210.57 454.40 C 216.68 460.37 222.37 467.03 229.94 471.22 C 245.25 480.18 265.20 480.35 280.63 471.60 C 288.64 467.30 294.60 460.31 301.00 454.05 C 322.88 432.10 344.90 410.28 366.70 388.25 Z" />
</g>
</svg>
